HIERARCHY
ROOT Hips
{
	OFFSET 0.0000 0.0000 0.0000
	CHANNELS 6 Xposition Yposition Zposition Zrotation Xrotation Yrotation
	JOINT Ab
	{
		OFFSET -0.0000 8.0846 -0.0000
		CHANNELS 3 Zrotation Xrotation Yrotation
		JOINT Chest
		{
			OFFSET -0.0000 25.0068 -0.0000
			CHANNELS 3 Zrotation Xrotation Yrotation
			JOINT Neck
			{
				OFFSET -0.0000 25.0068 0.0000
				CHANNELS 3 Zrotation Xrotation Yrotation
				JOINT Head
				{
					OFFSET -0.0000 10.7556 0.0000
					CHANNELS 3 Zrotation Xrotation Yrotation
					End Site
					{
						OFFSET -0.0000 16.6222 0.0000
					}
				}
			}
			JOINT LeftCollar
			{
				OFFSET -0.0000 25.0068 0.0000
				CHANNELS 3 Zrotation Xrotation Yrotation
				JOINT LeftShoulder
				{
					OFFSET 19.5556 -0.0000 0.0000
					CHANNELS 3 Zrotation Xrotation Yrotation
					JOINT LeftElbow
					{
						OFFSET 27.1828 0.0000 0.0000
						CHANNELS 3 Zrotation Xrotation Yrotation
						JOINT LeftWrist
						{
							OFFSET 23.3157 0.0000 0.0000
							CHANNELS 3 Zrotation Xrotation Yrotation
							End Site
							{
								OFFSET 0.0000 -14.6667 0.0000
							}
						}
					}
				}
			}
			JOINT RightCollar
			{
				OFFSET -0.0000 25.0068 0.0000
				CHANNELS 3 Zrotation Xrotation Yrotation
				JOINT RightShoulder
				{
					OFFSET -19.5556 0.0000 0.0000
					CHANNELS 3 Zrotation Xrotation Yrotation
					JOINT RightElbow
					{
						OFFSET -27.1828 0.0000 0.0000
						CHANNELS 3 Zrotation Xrotation Yrotation
						JOINT RightWrist
						{
							OFFSET -23.3157 0.0000 0.0000
							CHANNELS 3 Zrotation Xrotation Yrotation
							End Site
							{
								OFFSET -0.0000 -14.6667 0.0000
							}
						}
					}
				}
			}
		}
	}
	JOINT LeftHip
	{
		OFFSET 11.7333 0.0000 0.0000
		CHANNELS 3 Zrotation Xrotation Yrotation
		JOINT LeftKnee
		{
			OFFSET -0.0000 -40.8688 0.0000
			CHANNELS 3 Zrotation Xrotation Yrotation
			JOINT LeftAnkle
			{
				OFFSET -0.0000 -44.4337 0.0000
				CHANNELS 3 Zrotation Xrotation Yrotation
				End Site
				{
					OFFSET -0.0000 -4.8889 16.6222
				}
			}
		}
	}
	JOINT RightHip
	{
		OFFSET -11.7333 0.0000 0.0000
		CHANNELS 3 Zrotation Xrotation Yrotation
		JOINT RightKnee
		{
			OFFSET -0.0000 -40.8688 0.0000
			CHANNELS 3 Zrotation Xrotation Yrotation
			JOINT RightAnkle
			{
				OFFSET -0.0000 -44.4337 0.0000
				CHANNELS 3 Zrotation Xrotation Yrotation
				End Site
				{
					OFFSET -0.0000 -4.8889 16.6222
				}
			}
		}
	}
}
MOTION
Frames: 8
Frame Time: 0.010000
0.7348 84.9105 94.4111 1.1879 352.8826 184.0485 3.5343 9.6062 353.5535 4.5337 9.9559 353.4556 6.6357 346.2012 2.5428 355.5781 13.5857 2.3030 339.2223 358.6046 7.6327 324.4319 47.9438 329.7366 29.9212 350.3633 325.0361 82.7135 356.0197 358.3578 19.6756 359.0870 354.8514 61.4618 37.4043 1.7492 340.1220 354.7772 29.2344 277.3373 352.8446 19.7890 4.2848 4.9059 354.0272 359.0785 14.1166 353.4426 353.5620 339.0237 21.2055 4.2990 322.1348 8.2958 1.2907 38.6282 5.6639 352.2815 350.1855 335.9923 
0.9174 84.9470 94.1038 1.1684 352.7555 184.0631 3.5754 9.5414 353.5647 4.4509 9.9911 353.4740 6.6124 346.2391 2.5167 355.6952 13.5403 2.2643 339.2797 358.6095 7.5260 323.9349 47.5447 330.1292 29.7777 350.4117 324.8406 82.7642 356.0270 358.1398 19.6719 359.1091 354.9906 61.1937 37.4969 2.0645 340.0814 354.7487 29.2836 277.1396 352.9196 19.6064 4.3498 4.8438 354.2788 359.1359 14.3083 353.3166 353.5144 339.1086 21.1939 4.4658 322.1886 8.3272 1.1977 38.7235 5.9018 352.1511 349.9983 335.8209 
1.0942 84.9930 93.7945 1.1466 352.6339 184.0895 3.6069 9.4409 353.5789 4.3601 10.0340 353.4938 6.6178 346.2825 2.4975 355.7762 13.5258 2.2372 339.3032 358.6265 7.5285 323.8155 47.4776 330.1631 29.7838 350.3598 324.9011 82.7073 355.9968 358.1198 19.6746 359.1269 355.1168 60.9209 37.6043 2.3827 340.0208 354.7217 29.3125 277.0403 352.9059 19.4751 4.4137 4.7538 354.5151 359.1598 14.5437 353.2890 353.0551 339.2567 20.9722 4.6213 322.2614 8.3408 1.0895 38.7919 6.1065 352.0530 349.7689 335.6593 
1.2742 85.0457 93.4832 1.1532 352.5466 184.1502 3.6507 9.3650 353.5877 4.3052 10.0325 353.5087 6.5759 346.3508 2.4619 355.8679 13.5096 2.2003 339.2572 358.6216 7.6428 324.1064 47.7742 329.8207 29.9803 350.2989 325.2050 82.8830 355.9160 358.5000 19.6725 359.1611 355.2133 60.6398 37.6379 2.6904 339.9852 354.7010 29.3693 277.0965 352.8874 19.4386 4.5170 4.7140 354.5704 359.1387 14.7207 353.3541 352.9492 339.3793 20.9797 4.7855 322.3913 8.3655 1.0211 38.8130 6.2120 351.9235 349.5763 335.5365 
1.4536 85.1165 93.1445 1.1622 352.4752 184.2212 3.6525 9.2107 353.6146 4.2879 10.1429 353.5279 6.5848 346.2967 2.4393 355.8685 13.5752 2.1752 339.2613 358.6027 7.6138 323.7684 47.5784 330.0566 29.9516 350.3431 325.1023 82.9918 356.0460 358.6045 19.6615 359.1638 355.2592 60.3150 37.6422 3.0221 339.9298 354.6606 29.5632 277.0578 352.8891 19.4532 4.6195 4.7406 354.7528 359.1564 14.8048 353.3462 351.9520 339.3114 20.7698 4.9363 322.6045 8.4271 1.0058 38.7430 6.2396 351.7515 349.4117 335.3950 
1.6215 85.1861 92.8390 1.1533 352.3910 184.3355 3.6602 9.0715 353.6198 4.2528 10.2165 353.5295 6.5554 346.2175 2.3948 355.9631 13.5969 2.1207 339.2213 358.5721 7.8487 324.3506 48.2963 329.4479 30.5206 350.1634 325.5899 82.7740 355.8628 359.2543 19.6394 359.1999 355.2571 60.0385 37.6562 3.4428 339.9322 354.6277 29.5987 276.9431 352.9301 19.5048 4.6936 4.6773 354.8385 359.1624 14.8843 353.4194 351.3446 339.4142 20.6269 5.0297 322.7792 8.3781 0.9259 38.6764 6.3286 351.6010 349.2817 335.2857 
1.7911 85.2666 92.5306 1.1439 352.3520 184.3429 3.6337 8.9870 353.6893 4.2067 10.2185 353.5981 6.5276 346.2435 2.3791 356.0701 13.5555 2.0997 339.2251 358.5630 7.8571 323.8958 48.0758 329.8221 30.3988 350.2794 325.4583 83.0266 356.0558 359.2713 19.6161 359.1964 355.3639 59.8889 37.6241 3.6522 339.8002 354.5883 29.7381 276.9511 352.9717 19.5219 4.7773 4.7291 354.9667 359.1253 14.7895 353.6893 351.0876 339.7935 20.4618 5.2013 323.0242 8.5079 0.8944 38.5720 6.3436 351.5059 349.1515 335.1924 
1.9407 85.3689 92.2592 1.0888 352.1704 184.4219 3.5997 8.7833 353.7214 4.1162 10.1436 353.6317 6.5004 346.3076 2.3113 356.1628 13.4674 2.0214 339.2242 358.5573 7.8955 323.8103 48.2215 329.8669 30.4438 350.2967 325.5851 83.1302 356.1220 359.4506 19.6152 359.2220 355.3766 59.7142 37.6352 3.9344 339.6625 354.5466 29.7282 277.0642 352.8074 19.4842 4.7647 4.5502 355.1806 359.1847 14.7492 353.6492 350.3539 340.0823 20.2882 5.2394 323.0966 8.4551 0.8119 38.4979 6.5049 351.3661 349.0303 335.0487 
